<svg width="712" height="703" viewBox="0 0 712 703" fill="none" xmlns="http://www.w3.org/2000/svg">
<g clip-path="url(#clip0_190_772)">
<path fill-rule="evenodd" clip-rule="evenodd" d="M79.261 57.2792C89.6199 63.738 208.775 143.554 208.775 144.034C208.775 144.384 204.747 145.459 199.823 146.424C194.9 147.389 180.282 150.88 167.34 154.18C113.767 167.845 64.4229 184.724 12.877 207.016C-7.23409 215.713 -47 235.077 -47 236.172C-47 236.643 -46.8353 237.029 -46.6348 237.029C-46.4342 237.029 -35.9597 232.008 -23.3592 225.869C28.0803 200.812 79.44 180.977 134.449 164.922C151.106 160.06 188.512 150.557 203.266 147.439L211.567 145.684L216.566 149.097C219.315 150.976 232.774 160.272 246.476 169.756C260.176 179.24 271.891 186.832 272.506 186.627C273.122 186.421 260.761 177.375 245.037 166.524C229.313 155.672 216.059 146.426 215.583 145.978C214.509 144.966 220.095 143.749 246.119 139.322C345.054 122.491 449.636 120.373 545.376 133.262C612.314 142.274 678.435 160.622 728.813 184.163C739.368 189.097 742.796 188.949 732.859 183.99C715.22 175.187 679.327 161.756 652.834 154.047C607.863 140.96 564.127 132.796 508.033 127.02C489.089 125.07 448.534 123.475 418 123.48C350.386 123.492 289.957 128.921 230.261 140.346L212.356 143.772L203.148 137.578C177.71 120.466 98.5894 67.8018 90.0025 62.2658C84.6056 58.7862 79.5413 55.9665 78.7484 56.0003C77.7662 56.0412 77.9299 56.4484 79.261 57.2792ZM512.307 235.478C510.719 236.307 508.54 238.03 507.464 239.308C505.089 242.128 500.544 255.848 495.211 276.286C491.422 290.809 489.054 297.224 490.565 288.874C492.517 278.085 494.183 262.16 494.2 254.12C494.219 245.916 493.999 244.899 491.709 242.61C486.381 237.281 478.835 240.416 474.748 249.656C473.671 252.091 470.01 266.672 466.613 282.058C460.9 307.933 458.483 316.986 459.936 307.073C462.105 292.264 463.232 277.597 462.463 274.186C460.993 267.671 455.833 265.871 449.569 269.69C445.683 272.06 443.805 277.181 441.496 291.701C440.607 297.294 439.655 302.233 439.379 302.677C439.105 303.122 435.677 301.156 431.762 298.309C427.847 295.46 424.105 293.311 423.446 293.531C422.786 293.751 426.011 296.583 430.61 299.824C435.209 303.065 438.973 306.082 438.973 306.528C438.973 306.973 438.003 312.121 436.819 317.967C433.963 332.05 428.643 349.458 423.04 363.051C410.96 392.364 409.433 419.174 418.593 441.177C422.969 451.688 428.153 458.681 442.454 473.365C457.158 488.462 480.92 514.367 480.92 515.297C480.92 515.656 477.928 518.426 474.27 521.451C470.613 524.476 467.62 527.298 467.62 527.721C467.62 528.143 474.986 534.615 483.99 542.103C492.993 549.593 500.353 555.95 500.347 556.234C500.34 556.517 498.729 557.789 496.766 559.059C494.803 560.331 493.216 561.712 493.24 562.129C493.31 563.432 530.858 592.045 532.497 592.045C533.352 592.045 535.639 591.289 537.577 590.364L541.102 588.683L575.211 615.587C593.971 630.383 610.098 643.157 611.051 643.973C612.003 644.789 613.286 645.288 613.902 645.083C614.518 644.878 598.915 632.055 579.228 616.587C559.541 601.119 543.41 588.194 543.382 587.865C543.353 587.534 547.405 584.853 552.385 581.904C557.365 578.957 565.307 573.638 570.034 570.085C581.414 561.531 605.182 537.055 615.895 522.859L624.484 511.477L638.387 520.292C646.034 525.139 671.615 541.399 695.235 556.424C733.083 580.499 743.003 586.347 737.658 581.434C736.847 580.689 711.27 564.284 680.819 544.979L625.454 509.88L629.029 503.878C630.995 500.578 632.922 497.68 633.31 497.441C633.698 497.201 642.731 502.758 653.384 509.79C686.116 531.397 736.731 560.635 738.441 558.924C739.29 558.075 740.426 558.763 721.861 548.875C700.475 537.485 683.872 527.478 656.607 509.544L634.325 494.888L636.401 490.817C637.544 488.579 638.476 486.153 638.474 485.428C638.472 484.429 605.827 461.852 596.93 456.695C595.914 456.107 595.071 457.023 593.872 460.02C592.961 462.295 591.841 464.157 591.383 464.157C590.924 464.157 583.352 458.863 574.556 452.392C565.76 445.921 558.312 440.626 558.005 440.626C557.698 440.626 553.982 443.727 549.748 447.518L542.048 454.409L538.518 450.331C533.548 444.588 528.167 435.451 525.816 428.763C521.336 416.017 520.319 385.533 523.905 371.512C525.038 367.082 526.304 363.124 526.719 362.72C527.133 362.315 535.298 366.345 544.864 371.676C598.31 401.461 655.095 425.588 700.887 437.967C715.482 441.912 738.742 446.667 738.742 445.704C738.742 444.624 737.55 444.296 723.907 441.616C683.394 433.659 622.136 410.433 570.953 383.627C558.511 377.111 529.277 361.142 528.163 360.255C527.554 359.769 531.298 353.215 535.803 346.881C541.674 338.626 542.361 335.208 538.854 331.701L536.195 329.043L538.688 320.443C547.97 288.412 551.538 260.585 547.008 255.56C544.408 252.676 540.081 252.82 536.405 255.913C533.173 258.633 530.52 264.991 517.817 300.461C513.886 311.434 510.653 319.864 510.63 319.195C510.609 318.527 512.646 308.629 515.159 297.199C525.381 250.697 525.935 238.664 518.015 235.055C515.098 233.726 515.759 233.678 512.307 235.478ZM165.774 237.573C162.529 241.028 161.986 249.704 164.208 262.606C165.61 270.743 176.111 319.31 177.664 324.837C179.201 330.305 174.877 319.048 165.944 294.323C160.353 278.848 155.058 264.516 154.179 262.473C152.316 258.146 147.093 253.399 144.195 253.399C141.084 253.399 137.182 257.944 136.99 261.793C136.462 272.401 140.366 294.837 146.639 317.245L150.049 329.425L147.696 331.777C144.114 335.359 144.697 339.053 150.027 346.557C156.119 355.133 160.127 363.065 162.177 370.608C165.88 384.223 165.067 415.455 160.683 428.05C158.425 434.537 149.448 448.368 142.625 455.871L137.599 461.398L130.704 460.027L123.808 458.656L118.974 463.299C99.8785 481.636 82.3835 497.92 81.7768 497.92C80.9153 497.92 76.1538 483.668 75.1962 478.225C74.8248 476.115 74.0605 474.388 73.4978 474.388C72.086 474.388 73.2564 480.032 76.9621 491.095L80.0385 500.274L75.8765 504.435C73.2461 507.066 71.3677 508.232 70.7702 507.607C69.5978 506.379 65.5412 493.271 65.5412 490.711C65.5412 489.678 65.0102 488.505 64.3626 488.104C62.7205 487.089 63.9676 494.378 66.9633 503.311L69.3174 510.33L28.2962 549.387C-11.7286 587.495 -35.1985 609.884 -43.369 617.753C-45.5922 619.893 -47.1146 621.941 -46.7534 622.303C-46.3913 622.666 -40.8737 617.962 -34.4936 611.851C39.8061 540.7 69.4944 512.738 70.0428 513.398C70.2157 513.607 72.1514 517.229 74.3439 521.448C79.3029 530.988 88.209 543.096 96.002 550.889C108.209 563.095 128.055 577.212 144.832 585.62C149.896 588.158 154.173 590.355 154.338 590.501C154.831 590.939 146.488 602.77 130.576 624.199C122.31 635.331 115.813 644.704 116.139 645.03C116.948 645.839 116.455 646.457 134.966 621.389C144.031 609.112 152.824 597.398 154.504 595.359L157.56 591.652L163.051 593.383C169.245 595.335 171.944 595.567 171.944 594.145C171.944 593.61 169.181 592.399 165.805 591.452C162.429 590.504 159.667 589.492 159.667 589.203C159.667 588.535 166.824 577.722 167.266 577.722C167.446 577.722 169.552 578.412 171.944 579.256C176.831 580.981 179.499 581.234 178.672 579.894C178.367 579.401 176.037 578.473 173.496 577.833C170.954 577.193 168.874 576.394 168.874 576.058C168.874 575.722 175.55 566.423 183.709 555.394C198.931 534.819 199.796 533.06 197.568 527.202C196.666 524.828 197.964 523.139 214.705 504.888C224.667 494.027 238.803 478.899 246.119 471.27C260.664 456.101 265.602 448.785 269.904 436.022C272.465 428.424 272.666 426.59 272.692 410.445C272.723 390.216 271.609 384.882 262.53 361.847C254.202 340.717 251.151 328.742 244.206 289.921C241.459 274.564 240.119 271.557 234.923 269.079C229.978 266.72 226.408 267.923 224.452 272.602C223.085 275.875 223.031 278.114 224.058 289.191C224.711 296.234 225.506 303.377 225.826 305.065C226.146 306.753 226.101 307.844 225.727 307.489C225.353 307.133 222.321 294.537 218.99 279.499C212.791 251.516 210.547 245.241 205.463 241.68C202.601 239.676 198.607 239.657 195.781 241.636C190.77 245.146 190.521 252.896 194.503 281.523C195.519 288.832 196.223 294.939 196.066 295.095C195.91 295.252 193.874 287.89 191.541 278.737C184.943 252.847 181.346 242.496 177.547 238.468C173.454 234.128 169.307 233.813 165.774 237.573ZM518.917 237.966C524.32 242.35 521.433 263.944 507.536 323.089L502.581 344.183L492.521 358.757C483.414 371.949 481.782 373.766 475.296 377.942C453.752 391.81 445.112 405.701 445.112 426.469C445.112 436.035 446.682 444.719 448.412 444.719C448.968 444.719 449.141 443.983 448.796 443.084C448.451 442.185 447.666 438.204 447.05 434.238C443.563 411.762 455.118 391.264 478.683 378.121C482.177 376.172 485.14 372.676 492.909 361.336C511.194 334.647 514.819 331.391 527.332 330.406C532.744 329.981 534.012 330.231 536.521 332.219C540.321 335.229 539.701 338.718 534.033 346.227C528.279 353.848 523.275 364.971 521.387 374.337C518.549 388.424 519.757 414.65 523.881 428.444C526.427 436.957 534.021 448.65 542.862 457.667L549.713 464.654L547.529 468.754C539.451 483.923 513.102 510.562 496.597 520.248L491.301 523.356L477.67 508.365C470.173 500.119 455.717 484.542 445.546 473.747C429.567 456.789 426.471 452.959 422.779 445.582C416.333 432.705 414.938 426.228 414.988 409.422C415.039 392.128 416.854 383.813 425.18 362.732C433.931 340.575 436.101 332.017 444.204 287.694C446.125 277.194 446.86 275.024 449.346 272.538C453.229 268.655 458.27 268.939 460.281 273.157C461.745 276.226 460.81 287.995 456.281 323.481C454.036 341.066 453.97 342.169 455.23 340.823C455.731 340.289 457.375 333.865 458.883 326.55C467.163 286.398 475.135 252.516 477.156 248.886C478.383 246.684 480.673 243.932 482.246 242.767C484.886 240.815 485.32 240.771 487.873 242.203C492.956 245.052 493.594 248.031 492.209 262.492C490.911 276.056 485.57 309.344 481.558 328.888C480.253 335.238 479.564 340.667 480.023 340.951C480.484 341.236 481.096 340.414 481.386 339.125C488.645 306.73 503.412 251.495 506.663 244.58C508.798 240.038 512.821 236.006 515.219 236.006C515.925 236.006 517.589 236.888 518.917 237.966ZM175.808 239.343C179.284 243.045 181.713 249.585 187.689 271.344C194.437 295.911 204.683 337.049 204.683 339.572C204.683 340.57 205.196 341.385 205.822 341.385C207.114 341.385 207.305 342.74 202.293 316.319C197.093 288.903 194.484 271.22 193.786 258.634C193.223 248.504 193.335 247.581 195.426 244.958C199.738 239.55 206.486 242.551 210.244 251.546C211.544 254.659 216.316 275.678 229.42 336.014C230.061 338.968 230.974 341.385 231.446 341.385C232.507 341.385 232.496 340.888 231.313 335.758C230.063 330.329 225.145 285.143 225.145 279.078C225.145 270.13 230.37 267.115 236.402 272.582C239.813 275.671 240.738 279.221 246.198 310.181C249.535 329.095 254.211 345.643 261.353 363.809C269.005 383.276 271.46 394.224 271.575 409.422C271.708 426.984 267.969 440.684 259.785 452.619C257.942 455.308 246.933 467.636 235.322 480.016C223.71 492.395 208.579 508.739 201.698 516.336C194.815 523.932 188.618 530.28 187.925 530.44C184.869 531.149 141.469 487.902 132.288 474.999L129.615 471.241L135.861 465.397C148.575 453.503 158.773 439.158 162.566 427.837C165.231 419.879 167.26 398.634 166.474 386.913C165.402 370.925 160.998 358.622 151.943 346.323C146.869 339.43 146.198 335.618 149.531 332.603C152.711 329.724 161.79 330.104 169.03 333.417C175.418 336.342 177.924 339.272 193.272 361.758C201.623 373.994 203.333 375.902 209.032 379.352C223.023 387.819 232.291 397.731 236.443 408.664C239.241 416.032 240.208 430.033 238.514 438.644C237.168 445.486 237.704 447.757 239.556 443.07C241.39 438.433 241.957 422.204 240.504 415.944C237.067 401.129 227.431 388.728 211.772 378.969C204.623 374.512 203.434 373.224 194.415 360.15L184.734 346.115L180.416 328.148C176.554 312.078 168.996 277.525 165.748 261.087C163.84 251.435 163.973 243.021 166.084 239.797C168.381 236.292 172.75 236.089 175.808 239.343ZM148.844 257.747C151.907 260.467 155.144 268.708 173.461 320.412C176.451 328.852 179.244 336.679 179.666 337.804C180.244 339.341 179.57 339.037 176.957 336.584C171.755 331.699 165.304 329.157 158.038 329.131L151.806 329.108L150.673 325.271C143.458 300.813 137.575 270.218 138.677 262.875C139.783 255.496 143.946 253.396 148.844 257.747ZM546.53 258.258C549.094 264.797 545.513 288.947 537.951 316.116L534.59 328.189L527.934 328.512C520.716 328.861 514.158 331.521 509.311 336.062C507.764 337.512 506.498 338.464 506.498 338.178C506.498 337.891 510.838 325.489 516.143 310.619C535.331 256.828 535.991 255.445 542.446 255.445C544.748 255.445 545.678 256.085 546.53 258.258ZM573.719 454.007C581.482 459.679 588.393 464.858 589.076 465.517C590.042 466.451 589.704 467.673 587.541 471.056C586.014 473.443 584.262 475.4 583.646 475.404C582.123 475.415 556.63 456.169 556.63 455.009C556.63 453.614 558.984 443.695 559.316 443.695C559.474 443.695 565.956 448.336 573.719 454.007ZM569.989 468.294C576.775 473.419 582.185 478.014 582.011 478.507C581.216 480.769 567.108 497.499 557.026 508.138C541.538 524.478 531.693 533.365 516.032 545.142L502.547 555.283L487.568 542.724L472.588 530.166L479.056 528.885C488.003 527.113 500.348 520.762 510.151 512.887C527.793 498.716 549.983 472.439 553.623 461.41C554.397 459.062 555.268 458.063 556.22 458.427C557.006 458.73 563.202 463.169 569.989 468.294ZM616.997 471.993C627.686 479.117 636.412 485.447 636.389 486.061C636.365 486.675 635.544 488.682 634.563 490.521L632.779 493.865L616.335 482.336C607.292 475.996 598.383 469.638 596.539 468.21L593.186 465.612L594.885 462.327C595.819 460.52 596.804 459.042 597.073 459.042C597.342 459.042 606.309 464.871 616.997 471.993ZM127.114 470.618C138.54 488.148 184.452 533.976 193.662 537.046C195.129 537.535 167.001 575.248 165.485 574.826C161.715 573.778 144.498 564.349 136.087 558.726C111.406 542.228 95.2746 525.457 85.5009 506.133L82.6689 500.534L101.985 481.877C112.608 471.614 121.53 463.229 121.812 463.243C122.093 463.256 124.479 466.575 127.114 470.618ZM616.328 484.583C624.572 490.312 631.316 495.219 631.316 495.488C631.316 498.208 617.333 518.764 607.39 530.659C590.873 550.42 575.03 565.088 558.617 575.819C547.812 582.881 534.873 589.999 532.837 589.999C531.312 589.999 497.067 563.996 496.472 562.386C496.303 561.93 499.986 558.926 504.656 555.712C535.721 534.329 569.864 500.646 587.671 473.817L591.927 467.405L596.633 470.784C599.222 472.644 608.085 478.852 616.328 484.583ZM83.8547 506.872C95.3298 530.581 125.65 557.966 157.365 573.263C161.445 575.232 164.782 577.077 164.782 577.365C164.782 577.653 163.071 580.038 160.981 582.665C158.891 585.292 157.06 587.622 156.912 587.843C156.349 588.692 145.439 583.536 136.135 578.023C107.495 561.051 87.9266 542.003 76.7922 520.259L72.3295 511.544L76.3134 506.779C78.5049 504.157 80.5695 502.012 80.9 502.012C81.2315 502.012 82.5615 504.199 83.8547 506.872Z" fill="black"/>
<path d="M423.626 192.524C386.794 169.607 354.055 194.229 342.29 209.405L336.303 201.645C331.115 194.92 325.086 188.62 317.139 185.623C299.747 179.065 271.084 177.594 246.118 209.405C216.427 247.238 259.589 295.857 286.53 316.831L342.29 362.87C335.98 369.18 340.346 367.065 408.28 308.135C476.214 249.204 446.816 206.507 423.626 192.524Z" fill="#295F2D"/>
</g>
<defs>
<clipPath id="clip0_190_772">
<rect width="712" height="703" fill="white"/>
</clipPath>
</defs>
</svg>
