<svg width="160" height="44" viewBox="0 0 160 44" fill="none" xmlns="http://www.w3.org/2000/svg">
<path d="M63.9329 21.8085C63.4818 22.6169 62.805 23.2561 61.8838 23.7449C60.9626 24.2336 59.8346 24.478 58.4622 24.478H56.4507C56.1687 24.478 55.9619 24.7036 55.9619 24.9668V29.9488C55.9619 30.2308 55.7363 30.4375 55.4731 30.4375H52.4087C52.1267 30.4375 51.9199 30.212 51.9199 29.9488V14.2886C51.9199 14.0066 52.1455 13.7998 52.4087 13.7998H58.481C59.8158 13.7998 60.925 14.0254 61.8462 14.4954C62.7674 14.9466 63.4442 15.5858 63.9141 16.3942C64.3653 17.2026 64.6097 18.1237 64.6097 19.1765C64.5909 20.1165 64.3653 21.0001 63.9329 21.8085ZM59.891 20.6993C60.267 20.3421 60.455 19.8157 60.455 19.1577C60.455 18.4997 60.267 17.9733 59.891 17.6161C59.515 17.2589 58.9322 17.071 58.1614 17.071H56.4507C56.1687 17.071 55.9619 17.2966 55.9619 17.5597V20.7369C55.9619 21.0189 56.1875 21.2257 56.4507 21.2257H58.1614C58.9322 21.2445 59.515 21.0565 59.891 20.6993Z" fill="#295F2D"/>
<path d="M79.7802 17.7096V29.967C79.7802 30.249 79.5546 30.4558 79.2914 30.4558H76.227C75.945 30.4558 75.7382 30.2302 75.7382 29.967V29.9106C75.7382 29.4782 75.2494 29.2714 74.911 29.5346C74.6478 29.7414 74.3658 29.9294 74.0651 30.0798C73.3695 30.437 72.5799 30.6062 71.7339 30.6062C70.7187 30.6062 69.8351 30.3806 69.0455 29.9294C68.2747 29.4782 67.6731 28.8202 67.2407 27.9743C66.8084 27.1283 66.6016 26.1131 66.6016 24.9663V17.7284C66.6016 17.4464 66.8272 17.2396 67.0904 17.2396H70.1359C70.4179 17.2396 70.6247 17.4652 70.6247 17.7284V24.4023C70.6247 25.2859 70.8503 25.9815 71.3203 26.4703C71.7715 26.9591 72.3919 27.2035 73.1627 27.2035C73.9522 27.2035 74.5726 26.9591 75.0426 26.4703C75.4938 25.9815 75.7382 25.2859 75.7382 24.4023V17.7096C75.7382 17.4276 75.9638 17.2208 76.227 17.2208H79.2914C79.5546 17.202 79.7802 17.4276 79.7802 17.7096Z" fill="#295F2D"/>
<path d="M90.0841 27.5048V29.9488C90.0841 30.2307 89.8585 30.4375 89.5953 30.4375H88.035C86.5686 30.4375 85.4218 30.0804 84.5946 29.366C83.7674 28.6516 83.3538 27.4672 83.3538 25.8504V21.0753C83.3538 20.7933 83.1282 20.5865 82.865 20.5865H82.2447C81.9627 20.5865 81.7559 20.3609 81.7559 20.0977V17.7289C81.7559 17.4469 81.9815 17.2401 82.2447 17.2401H82.865C83.147 17.2401 83.3538 17.0145 83.3538 16.7513V14.5142C83.3538 14.2322 83.5794 14.0254 83.8426 14.0254H86.907C87.189 14.0254 87.3958 14.251 87.3958 14.5142V16.7513C87.3958 17.0333 87.6214 17.2401 87.8846 17.2401H89.5389C89.8209 17.2401 90.0277 17.4657 90.0277 17.7289V20.0789C90.0277 20.3609 89.8021 20.5677 89.5389 20.5677H87.9034C87.6214 20.5677 87.4146 20.7933 87.4146 21.0565V25.9068C87.4146 26.3016 87.5086 26.5836 87.6966 26.7528C87.8846 26.922 88.2042 27.016 88.6554 27.016H89.6141C89.8585 27.016 90.0841 27.2416 90.0841 27.5048Z" fill="#295F2D"/>
<path d="M111.796 14.2886V29.9488C111.796 30.2308 111.571 30.4375 111.308 30.4375H108.243C107.961 30.4375 107.754 30.212 107.754 29.9488V24.0832C107.754 23.8012 107.529 23.5945 107.266 23.5945H101.945C101.663 23.5945 101.456 23.82 101.456 24.0832V29.9488C101.456 30.2308 101.231 30.4375 100.968 30.4375H97.8657C97.5837 30.4375 97.377 30.212 97.377 29.9488V14.2886C97.377 14.0066 97.6025 13.7998 97.8657 13.7998H100.93C101.212 13.7998 101.419 14.0254 101.419 14.2886V19.8157C101.419 20.0977 101.644 20.3045 101.908 20.3045H107.228C107.51 20.3045 107.717 20.0789 107.717 19.8157V14.2886C107.717 14.0066 107.942 13.7998 108.206 13.7998H111.27C111.571 13.7998 111.796 14.0254 111.796 14.2886Z" fill="#295F2D"/>
<path d="M114.692 20.2292C115.2 19.1952 115.914 18.4056 116.797 17.8604C117.681 17.3152 118.677 17.0332 119.768 17.0332C120.708 17.0332 121.516 17.2212 122.231 17.5972C122.531 17.7664 122.795 17.9356 123.039 18.1424C123.359 18.4056 123.847 18.18 123.847 17.7664V17.71C123.847 17.428 124.073 17.2212 124.336 17.2212H127.401C127.683 17.2212 127.889 17.4468 127.889 17.71V29.9674C127.889 30.2494 127.664 30.4562 127.401 30.4562H124.336C124.054 30.4562 123.847 30.2306 123.847 29.9674V29.911C123.847 29.4974 123.359 29.253 123.039 29.5162C122.795 29.723 122.513 29.911 122.193 30.0802C121.497 30.4562 120.67 30.6442 119.73 30.6442C118.659 30.6442 117.681 30.3622 116.779 29.7982C115.895 29.2342 115.2 28.4446 114.673 27.3919C114.166 26.3579 113.902 25.1547 113.902 23.8011C113.902 22.4475 114.166 21.2631 114.692 20.2292ZM122.983 21.4323C122.419 20.8495 121.723 20.5488 120.915 20.5488C120.369 20.5488 119.805 20.7179 119.354 21.0187C118.471 21.6015 118.038 22.5415 118.038 23.8011C118.038 24.8163 118.32 25.6247 118.884 26.2075C119.448 26.8091 120.125 27.091 120.933 27.091C121.742 27.091 122.419 26.7903 122.983 26.2075C123.547 25.6247 123.829 24.8163 123.829 23.8011C123.829 22.8235 123.547 22.0151 122.983 21.4323Z" fill="#295F2D"/>
<path d="M142.629 18.5745C143.55 19.5709 144.02 20.9621 144.02 22.7105V29.9484C144.02 30.2304 143.795 30.4372 143.532 30.4372H140.486C140.204 30.4372 139.997 30.2116 139.997 29.9484V23.2557C139.997 22.3721 139.772 21.6765 139.302 21.1877C138.85 20.6989 138.23 20.4545 137.459 20.4545C136.688 20.4545 136.068 20.6989 135.617 21.1877C135.166 21.6765 134.921 22.3721 134.921 23.2557V29.9484C134.921 30.2304 134.696 30.4372 134.433 30.4372H131.331C131.049 30.4372 130.842 30.2116 130.842 29.9484V17.6909C130.842 17.409 131.067 17.2022 131.331 17.2022H134.395C134.677 17.2022 134.884 17.4278 134.884 17.6909V17.7097C134.884 18.1233 135.373 18.3489 135.692 18.0857C135.937 17.8789 136.219 17.7098 136.538 17.5594C137.234 17.221 138.023 17.0518 138.888 17.0518C140.448 17.0706 141.689 17.5782 142.629 18.5745Z" fill="#295F2D"/>
<path d="M146.802 20.2291C147.31 19.1951 148.024 18.4055 148.908 17.8603C149.791 17.3152 150.788 17.0332 151.878 17.0332C152.743 17.0332 153.551 17.2212 154.266 17.5783C154.585 17.7475 154.886 17.9355 155.13 18.1423C155.469 18.4055 155.958 18.1987 155.958 17.7663V13.4048C155.958 13.1228 156.183 12.916 156.446 12.916H159.511C159.793 12.916 159.999 13.1416 159.999 13.4048V29.9674C159.999 30.2493 159.774 30.4562 159.511 30.4562H156.446C156.164 30.4562 155.958 30.2305 155.958 29.9674V29.911C155.958 29.4786 155.45 29.253 155.13 29.535C154.886 29.7418 154.623 29.911 154.341 30.0802C153.645 30.4562 152.818 30.6441 151.878 30.6441C150.788 30.6441 149.791 30.3622 148.908 29.7982C148.024 29.2342 147.328 28.4446 146.802 27.3918C146.294 26.3578 146.031 25.1546 146.031 23.801C146.031 22.4475 146.276 21.2631 146.802 20.2291ZM155.112 21.4323C154.548 20.8495 153.852 20.5487 153.044 20.5487C152.498 20.5487 151.934 20.7179 151.483 21.0187C150.6 21.6015 150.167 22.5415 150.167 23.801C150.167 24.8162 150.449 25.6246 151.013 26.2074C151.577 26.809 152.254 27.091 153.062 27.091C153.871 27.091 154.548 26.7902 155.112 26.2074C155.676 25.6246 155.958 24.8162 155.958 23.801C155.939 22.8235 155.657 22.0151 155.112 21.4323Z" fill="#295F2D"/>
<path d="M43.0658 16.2053L40.1518 13.9494C33.8915 8.77946 27.8756 0 27.8756 0C27.7064 2.16197 27.5748 4.22993 27.6124 5.32032C28.2328 6.1099 29.6616 8.91106 30.0564 10.9602C30.4324 13.0094 30.564 16.1301 30.846 17.5965C30.9776 18.2733 31.1844 18.9501 31.4476 19.6269C31.7296 20.3977 32.0867 21.1497 32.4815 21.8453C33.0831 22.9357 34.3051 25.2292 33.9103 26.3384C33.8351 26.564 33.7035 26.7332 33.4779 26.8272C32.1619 27.4664 31.1468 24.9096 30.8084 24.3832C30.47 23.8568 29.0788 21.3001 28.4772 20.2473C28.0072 20.4917 27.6688 20.8113 27.6688 20.8113C27.6688 20.8113 28.402 22.8793 28.5148 23.6312C28.6088 24.3832 28.8908 27.3348 29.06 28.914C29.1728 30.0419 29.0788 31.0759 28.6652 31.6023C28.5148 31.8091 28.2892 31.9407 28.0448 31.9595C27.1236 32.0535 26.5972 31.4519 26.5408 30.5683C26.4844 29.6847 26.1272 25.7744 25.864 24.7968C25.6008 23.8192 25.0557 21.9957 25.0557 21.9957L24.6609 22.0521C25.2624 23.3304 25.3001 28.5192 25.2813 30.7751C25.2813 32.4859 24.9804 33.7079 24.3789 34.1591C24.1909 34.2907 23.9841 34.3659 23.7397 34.3471C22.7057 34.3095 22.2733 32.4859 22.2921 31.8843C22.3109 31.2827 22.3297 28.1808 22.1605 27.034C21.9913 25.906 21.7469 22.5785 21.7469 22.5785C21.7469 22.5785 21.2205 22.6348 20.7693 22.5408C20.7129 22.8416 20.2053 27.2972 20.0737 28.6132C19.9609 29.7035 19.7541 32.1475 19.0021 32.7679C18.8517 32.8995 18.6637 32.9371 18.4569 32.8807C17.2162 32.5611 17.2538 30.6999 17.3102 27.974C17.3854 25.2668 17.517 22.5785 17.8554 20.6985C17.8742 19.0817 17.4606 16.6377 15.3738 15.1526C14.7534 15.0962 14.4714 15.3594 14.4714 15.3594C13.9262 16.5249 13.3246 17.3897 12.6854 18.0289C11.5199 19.1945 10.2603 19.5705 9.13229 19.5329C9.11349 19.5329 9.0947 19.5329 9.0759 19.5329C7.38392 19.4577 7.83511 18.4613 8.41791 18.0101C9.0007 17.5401 9.84668 16.6189 10.4671 15.6978C11.0875 14.7766 11.5387 13.2162 12.4034 11.3738C13.2494 9.51265 13.7758 8.51627 17.7426 5.67751C17.7426 5.67751 17.8366 3.21475 17.8178 0.357193L10.4671 8.76066C9.75268 9.56905 8.9819 10.321 8.17351 11.0166C8.17351 11.0166 1.06722 17.1265 0.76642 17.6153C-0.474361 19.6833 -0.211168 22.4093 1.5748 24.1952L19.2653 41.8858C21.3709 43.9913 24.7737 43.9913 26.8604 41.8858L43.987 24.3456C44.5134 23.8192 44.9081 23.2176 45.1713 22.5597C46.1113 20.2849 45.1901 17.5965 43.0658 16.2053Z" fill="#295F2D"/>
</svg>
